<?xml version="1.0" encoding="utf-8"?>
<!-- Generator: Adobe Illustrator 19.2.1, SVG Export Plug-In . SVG Version: 6.00 Build 0)  -->
<svg version="1.1" id="Layer_1" xmlns="http://www.w3.org/2000/svg" xmlns:xlink="http://www.w3.org/1999/xlink" x="0px" y="0px"
	 viewBox="0 0 1024 768" style="enable-background:new 0 0 1024 768;" xml:space="preserve">
<style type="text/css">
	.st0{fill:#0000FF;}
	.st1{fill:#FFFFFF;stroke:#FF0000;stroke-width:4;stroke-miterlimit:10;}
	.st2{font-family:'CarnivaleeFreakshow';}
	.st3{font-size:107.398px;}
	.st4{font-size:51.6336px;}
</style>
<rect x="0.3" y="-1.3" class="st0" width="1024.8" height="769.3"/>
<polygon class="st1" points="515.5,398.2 933.3,768 1025.2,768 1025.2,684.7 533,377.6 "/>
<polygon class="st1" points="931.4,-1.3 512.1,383 530.1,403.3 1025.2,82.3 1025.2,-1.3 "/>
<polygon class="st1" points="-1.8,715.8 -1.8,764.7 1.2,768 132.3,768 531.6,401.9 513.7,381.6 "/>
<polygon class="st1" points="464,-1.3 511.4,404 539,404.1 562,-1.3 "/>
<polygon class="st1" points="490.6,768 581.9,768 539,402.1 511.5,401.9 "/>
<polygon class="st1" points="-1.8,464.4 553.6,403.4 553.7,376.7 -1.8,347 "/>
<polygon class="st1" points="551.6,376.6 551.4,403.3 1025.2,428.6 1025.2,324.6 "/>
<polygon class="st1" points="670.1,-1.3 516.5,375.9 540.8,388.5 784,-1.3 "/>
<polygon class="st1" points="271.8,768 386.7,768 541.9,386.7 517.6,374.1 "/>
<polygon class="st1" points="253.9,-1.3 509.5,388 534.4,376.4 370.2,-1.3 "/>
<polygon class="st1" points="-1.8,509.3 -1.8,636.5 540.8,400 532.5,374.5 "/>
<polygon class="st1" points="508.7,386.2 674.6,768 791.8,768 533.5,374.6 "/>
<polygon class="st1" points="3.4,285.7 530.8,404.2 540.2,379.5 3.4,163.6 "/>
<polygon class="st1" points="530.4,375 538.7,400.5 1025.2,277.8 1025.2,159.4 "/>
<polygon class="st1" points="-5.1,0.4 -2.1,83.9 504.2,386.9 521.5,365.9 88.6,-3 "/>
<polygon class="st1" points="523.5,402.2 1025.2,607.6 1025.2,489.7 532.9,377 "/>
<rect x="278" y="293.9" class="st1" width="455.2" height="217.1"/>
<text transform="matrix(1 0 0 1 309.7875 453.7634)" class="st2 st3">freakshow</text>
<text transform="matrix(1 0 0 1 365.6965 375.5748)" class="st2 st4">welcome to the</text>
</svg>
