<?xml version="1.0" encoding="utf-8"?>
<!-- Generator: Adobe Illustrator 19.2.1, SVG Export Plug-In . SVG Version: 6.00 Build 0)  -->
<svg version="1.1" id="Layer_1" xmlns="http://www.w3.org/2000/svg" xmlns:xlink="http://www.w3.org/1999/xlink" x="0px" y="0px"
	 viewBox="0 0 1024 768" style="enable-background:new 0 0 1024 768;" xml:space="preserve">
<style type="text/css">
	.st0{fill:#FF0000;stroke:#FF0000;stroke-width:4;stroke-miterlimit:10;}
	.st1{fill:#0000FF;stroke:#0000FF;stroke-width:4;stroke-miterlimit:10;}
	.st2{fill:#FFFFFF;}
	.st3{font-family:'CarnivaleeFreakshow';}
	.st4{font-size:110.6428px;}
	.st5{font-size:53.1936px;}
	.st6{fill:#0000FF;stroke:#3300FF;stroke-width:4;stroke-miterlimit:10;}
	.st7{fill:#FFFFFF;stroke:#FF0000;stroke-width:4;stroke-miterlimit:10;}
	.st8{fill:#FFFFFF;stroke:#0000FF;stroke-width:4;stroke-miterlimit:10;}
</style>
<polygon class="st0" points="511.2,400.2 941.6,781.1 1036.3,781.1 1036.3,695.3 529.2,379 "/>
<polygon class="st0" points="939.7,-11.4 507.7,384.5 526.3,405.4 1036.3,74.7 1036.3,-11.4 "/>
<polygon class="st0" points="-21.7,727.4 -21.7,777.7 -18.6,781.1 116.4,781.1 527.8,404 509.4,383.1 "/>
<polygon class="st0" points="485.6,781.1 579.6,781.1 535.4,404.2 507.1,404 "/>
<polygon class="st0" points="-21.7,468.4 550.5,405.5 550.6,378 -21.7,347.4 "/>
<polygon class="st0" points="548.4,377.9 548.2,405.4 1036.3,431.5 1036.3,324.4 "/>
<polygon class="st1" points="670.5,-11.4 512.2,377.2 537.3,390.2 787.8,-11.4 "/>
<polygon class="st1" points="260.1,781.1 378.5,781.1 538.4,388.3 513.4,375.3 "/>
<polygon class="st1" points="240.7,-11.4 504,389.7 529.7,377.7 360.5,-11.4 "/>
<polyline class="st1" points="79.2,601.7 537.3,402 528.7,375.8 -21.7,514.6 -21.7,645.7 79.2,601.7 "/>
<polygon class="st0" points="458.2,-11.4 507,406.1 535.4,406.3 559.1,-11.4 "/>
<polygon class="st1" points="504.2,387.8 675.1,781.1 795.9,781.1 529.8,375.9 "/>
<polygon class="st1" points="-16.3,284.3 526.9,406.4 536.6,380.9 -16.3,158.5 "/>
<polygon class="st1" points="526.6,376.3 535.1,402.5 1036.3,276.1 1036.3,154.2 "/>
<polygon class="st0" points="-25.2,-9.7 -22,76.4 499.6,388.5 517.4,366.9 71.4,-13.1 "/>
<polygon class="st1" points="519.5,404.3 1036.3,615.9 1036.3,494.4 529.1,378.3 "/>
<rect x="213.3" y="273.4" class="st2" width="595.9" height="258.2"/>
<text transform="matrix(1 0 0 1 299.2824 452.2652)" class="st3 st4">freakshow</text>
<text transform="matrix(1 0 0 1 356.8805 371.7144)" class="st3 st5">welcome to the</text>
<polygon class="st1" points="75.6,10.4 98.9,57.8 151.1,65.3 113.3,102.2 122.3,154.2 75.6,129.6 28.9,154.2 37.8,102.2 0,65.3 
	52.2,57.8 "/>
<polygon class="st1" points="950.7,612.7 963.9,639.5 993.5,643.8 972.1,664.6 977.2,694.1 950.7,680.2 924.2,694.1 929.3,664.6 
	907.9,643.8 937.5,639.5 "/>
<polygon class="st6" points="113.3,354.3 125,377.9 151.1,381.7 132.2,400.1 136.7,426.1 113.3,413.8 90,426.1 94.4,400.1 
	75.6,381.7 101.7,377.9 "/>
<polygon class="st1" points="809.2,71.3 820.8,95 846.9,98.8 828,117.2 832.5,143.2 809.2,130.9 785.8,143.2 790.3,117.2 
	771.4,98.8 797.5,95 "/>
<polygon class="st0" points="964.8,438.9 976.4,462.5 1002.5,466.3 983.7,484.7 988.1,510.7 964.8,498.4 941.4,510.7 945.9,484.7 
	927,466.3 953.1,462.5 "/>
<polygon class="st0" points="356.9,617.5 368.6,641.1 394.7,644.9 375.8,663.3 380.2,689.3 356.9,677 333.5,689.3 338,663.3 
	319.1,644.9 345.2,641.1 "/>
<polygon class="st0" points="387.3,24 400.8,51.4 431.1,55.8 409.2,77.1 414.4,107.2 387.3,93 360.2,107.2 365.4,77.1 343.5,55.8 
	373.8,51.4 "/>
<polygon class="st7" points="601.8,29.7 608.7,43.6 624.1,45.8 613,56.7 615.6,72 601.8,64.7 588.1,72 590.7,56.7 579.6,45.8 
	595,43.6 "/>
<polygon class="st8" points="53.3,624.5 60.2,638.5 75.6,640.7 64.4,651.5 67.1,666.8 53.3,659.6 39.6,666.8 42.2,651.5 31.1,640.7 
	46.5,638.5 "/>
<polygon class="st7" points="831.4,708 838.3,721.9 853.6,724.2 842.5,735 845.1,750.3 831.4,743.1 817.6,750.3 820.3,735 
	809.2,724.2 824.5,721.9 "/>
<polygon class="st7" points="977.8,133 984.7,146.9 1000.1,149.2 989,160 991.6,175.3 977.8,168.1 964.1,175.3 966.7,160 
	955.6,149.2 971,146.9 "/>
</svg>
