<?xml version="1.0" encoding="utf-8"?>
<!-- Generator: Adobe Illustrator 18.1.1, SVG Export Plug-In . SVG Version: 6.00 Build 0)  -->
<svg version="1.1" id="Layer_1" xmlns="http://www.w3.org/2000/svg" xmlns:xlink="http://www.w3.org/1999/xlink" x="0px" y="0px"
	 viewBox="0 0 225.5 132.6" enable-background="new 0 0 225.5 132.6" xml:space="preserve">
<g>
	<g>
		<g enable-background="new    ">
			<g>
				<rect x="113.2" y="-79.1" fill="#18105F" width="0" height="158.3"/>
			</g>
			<g enable-background="new    ">
				<defs>
					<path id="SVGID_1_" enable-background="new    " d="M192.3,110c0,12.1,0,22,0,22H34c0,0,0-9.9,0-22C34,110,192.3,110,192.3,110
						z"/>
				</defs>
				<clipPath id="SVGID_2_">
					<use xlink:href="#SVGID_1_"  overflow="visible"/>
				</clipPath>
				<g clip-path="url(#SVGID_2_)" enable-background="new    ">
					<path fill="#44439B" d="M34,110h158.3c0,0,0,0,0,0L34,110C34,110,34,110,34,110"/>
					<path fill="#2E3192" d="M34,110.1h158.3c0,0.2,0,0.3,0,0.5H34C34,110.4,34,110.2,34,110.1"/>
					<path fill="#2D2F8F" d="M34,110.5h158.3c0,0.2,0,0.3,0,0.5H34C34,110.8,34,110.7,34,110.5"/>
					<path fill="#2C2E8C" d="M34,111h158.3c0,0.2,0,0.3,0,0.5H34C34,111.3,34,111.1,34,111"/>
					<path fill="#2C2C8A" d="M34,111.4h158.3c0,0.2,0,0.3,0,0.5H34C34,111.8,34,111.6,34,111.4"/>
					<path fill="#2B2B88" d="M34,111.9h158.3c0,0.2,0,0.4,0,0.5H34C34,112.3,34,112.1,34,111.9"/>
					<path fill="#2A2A86" d="M34,112.4h158.3c0,0.2,0,0.4,0,0.5H34C34,112.8,34,112.6,34,112.4"/>
					<path fill="#292984" d="M34,113h158.3c0,0.2,0,0.3,0,0.5H34C34,113.3,34,113.1,34,113"/>
					<path fill="#282882" d="M34,113.5h158.3c0,0.2,0,0.4,0,0.6H34C34,113.9,34,113.7,34,113.5"/>
					<path fill="#272780" d="M34,114.1h158.3c0,0.2,0,0.4,0,0.7H34C34,114.6,34,114.3,34,114.1"/>
					<path fill="#27257D" d="M34,114.8h158.3c0,0.2,0,0.5,0,0.7H34C34,115.2,34,115,34,114.8"/>
					<path fill="#26247B" d="M34,115.5h158.3c0,0.3,0,0.5,0,0.8H34C34,116,34,115.7,34,115.5"/>
					<path fill="#252379" d="M34,116.3h158.3c0,0.3,0,0.5,0,0.8H34C34,116.8,34,116.5,34,116.3"/>
					<path fill="#242177" d="M34,117.1h158.3c0,0.3,0,0.6,0,0.9H34C34,117.7,34,117.4,34,117.1"/>
					<path fill="#232075" d="M34,118h158.3c0,0.3,0,0.6,0,0.9H34C34,118.6,34,118.3,34,118"/>
					<path fill="#221F72" d="M34,118.9h158.3c0,0.3,0,0.6,0,0.9H34C34,119.5,34,119.2,34,118.9"/>
					<path fill="#211D70" d="M34,119.8h158.3c0,0.3,0,0.6,0,0.9H34C34,120.5,34,120.2,34,119.8"/>
					<path fill="#201B6D" d="M34,120.8h158.3c0,0.3,0,0.6,0,0.9H34C34,121.4,34,121.1,34,120.8"/>
					<path fill="#1F1A6B" d="M34,121.7h158.3c0,0.3,0,0.6,0,0.9H34C34,122.3,34,122,34,121.7"/>
					<path fill="#1E1869" d="M34,122.6h158.3c0,0.3,0,0.6,0,0.9H34C34,123.3,34,122.9,34,122.6"/>
					<path fill="#1C1666" d="M34,123.6h158.3c0,0.3,0,0.6,0,0.9H34C34,124.2,34,123.9,34,123.6"/>
					<path fill="#1B1464" d="M34,124.5h158.3c0,0.3,0,0.6,0,0.9H34C34,125.1,34,124.8,34,124.5"/>
					<path fill="#1A1262" d="M34,125.4h158.3c0,0.3,0,0.7,0,1H34C34,126.1,34,125.8,34,125.4"/>
					<path fill="#19105F" d="M34,126.4h158.3c0,0.4,0,0.7,0,1H34C34,127.1,34,126.8,34,126.4"/>
					<path fill="#170E5D" d="M34,127.5h158.3c0,0.4,0,0.8,0,1.2H34C34,128.3,34,127.9,34,127.5"/>
					<path fill="#160C5A" d="M34,128.6h158.3c0,2.2,0,3.4,0,3.4H34C34,132,34,130.8,34,128.6"/>
				</g>
			</g>
			<g enable-background="new    ">
				<defs>
					<path id="SVGID_3_" enable-background="new    " d="M34,110c0,12.1,0,22,0,22c-18.8,0-34-15.2-34-34c0,0,9.9,0,22,0
						C22,104.6,27.4,110,34,110z"/>
				</defs>
				<clipPath id="SVGID_4_">
					<use xlink:href="#SVGID_3_"  overflow="visible"/>
				</clipPath>
				<g clip-path="url(#SVGID_4_)" enable-background="new    ">
					<path fill="#2E3192" d="M34,110c0,12.1,0,22,0,22c-18.8,0-34-15.2-34-34c0,0,9.9,0,22,0C22,104.6,27.4,110,34,110"/>
					<path fill="#2E3192" d="M22,98c0.2,6.8,5.2,11.8,12,12c0,12.1,0,22,0,22c-18.8,0-34-15.2-34-34C0,98,9.8,98,22,98"/>
					<path fill="#2D2F8F" d="M21.6,98c0.1,0.1,0,0.4,0,0.6c0.2,4.3,3.7,11.4,12.4,11.9c0,11.9,0,21.5,0,21.5c-18.8,0-34-15.2-34-34
						C0,98,9.6,98,21.6,98"/>
					<path fill="#2C2E8C" d="M21.2,98c0.1,0.1,0,0.5,0,0.7c0.2,4.4,3.9,11.5,12.8,12.3c0,11.7,0,21.1,0,21.1c-18.8,0-34-15.2-34-34
						C0,98,9.4,98,21.2,98"/>
					<path fill="#2C2C8A" d="M20.8,98c0.1,0.1,0,0.5,0,0.7c0.3,4.6,4.1,11.8,13.2,12.7c0,11.5,0,20.6,0,20.6c-18.8,0-34-15.2-34-34
						C0,98,9.2,98,20.8,98"/>
					<path fill="#2B2B88" d="M20.3,98c0.2,0.1,0,0.5,0.1,0.7c0.4,4.7,4.3,12.1,13.6,13.2c0,11.3,0,20.1,0,20.1
						c-18.8,0-34-15.2-34-34C0,98,9,98,20.3,98"/>
					<path fill="#2A2A86" d="M19.9,98c0.7,7.6,6.2,13.3,14.1,14.4c0,11,0,19.6,0,19.6c-18.8,0-34-15.2-34-34C0,98,8.7,98,19.9,98"/>
					<path fill="#292984" d="M19.4,98c0.2,0.2,0.1,0.5,0.1,0.7c0.4,4.2,4,12.6,14.5,14.2c0,10.8,0,19.1,0,19.1
						c-18.8,0-34-15.2-34-34C0,98,8.5,98,19.4,98"/>
					<path fill="#282882" d="M18.9,98c0.2,0.2,0.1,0.5,0.1,0.8c0.6,4.6,4.3,12.9,15,14.7c0,10.5,0,18.5,0,18.5
						c-18.8,0-34-15.2-34-34C0,98,8.2,98,18.9,98"/>
					<path fill="#272780" d="M18.4,98c0.2,0.2,0.1,0.6,0.1,0.8c0.5,4.4,4.5,13.3,15.5,15.3c0,10.2,0,17.9,0,17.9
						c-18.8,0-34-15.2-34-34C0,98,7.9,98,18.4,98"/>
					<path fill="#27257D" d="M17.7,98c1.2,8.6,7.4,15,16.3,16.7c0,9.9,0,17.3,0,17.3c-18.8,0-34-15.2-34-34C0,98,7.6,98,17.7,98"/>
					<path fill="#26247B" d="M17.1,98c0.2,0.2,0.1,0.6,0.1,0.9c0.2,1.4,2.5,13.6,16.8,16.6c0,9.5,0,16.6,0,16.6
						c-18.8,0-34-15.2-34-34C0,98,7.3,98,17.1,98"/>
					<path fill="#252379" d="M16.4,98c0.2,0.2,0.1,0.6,0.1,0.9c0.2,1.4,2.7,14.1,17.5,17.3c0,9.1,0,15.8,0,15.8
						c-18.8,0-34-15.2-34-34C0,98,6.9,98,16.4,98"/>
					<path fill="#242177" d="M15.6,98c0.2,0.2,0.1,0.7,0.2,0.9c0.4,2.4,3.3,14.7,18.3,18.1c0,8.7,0,14.9,0,14.9
						c-18.8,0-34-15.2-34-34C0,98,6.6,98,15.6,98"/>
					<path fill="#232075" d="M14.7,98c0.1,0.1,0,0.3,0.1,0.4c1.7,9.8,9.1,17.3,19.2,19.6c0,8.2,0,14.1,0,14.1c-18.8,0-34-15.2-34-34
						C0,98,6.2,98,14.7,98"/>
					<path fill="#221F72" d="M13.8,98c0.2,0.2,0.1,0.7,0.2,1c0.7,3.7,4.3,16,20,19.8c0,7.7,0,13.1,0,13.1c-18.8,0-34-15.2-34-34
						C0,98,5.7,98,13.8,98"/>
					<path fill="#211D70" d="M12.9,98c0.3,0.2,0.1,0.8,0.2,1.1c0.5,2.7,4,16.6,20.9,20.7c0,7.2,0,12.2,0,12.2c-18.8,0-34-15.2-34-34
						C0,98,5.3,98,12.9,98"/>
					<path fill="#201B6D" d="M12,98c0.2,0.1,0.1,0.5,0.1,0.8c0.5,2.9,4.2,17.7,21.8,22c0,6.7,0,11.3,0,11.3c-18.8,0-34-15.2-34-34
						C0,98,4.9,98,12,98"/>
					<path fill="#1F1A6B" d="M11.1,98c0.3,0.2,0.2,0.8,0.2,1.2c0.6,3,4.4,18.2,22.7,22.5c0,6.2,0,10.3,0,10.3c-18.8,0-34-15.2-34-34
						C0,98,4.5,98,11.1,98"/>
					<path fill="#1E1869" d="M10.2,98c0.2,0.1,0.1,0.5,0.1,0.6c0.6,3.2,4.4,19.5,23.7,24c0,5.7,0,9.4,0,9.4c-18.8,0-34-15.2-34-34
						C0,98,4.1,98,10.2,98"/>
					<path fill="#1C1666" d="M9.3,98c0.3,0.2,0.2,0.9,0.2,1.3c1.8,9.9,10.1,21.3,24.5,24.3c0,5.2,0,8.5,0,8.5c-18.8,0-34-15.2-34-34
						C0,98,3.7,98,9.3,98"/>
					<path fill="#1B1464" d="M8.3,98c0.3,0.3,0.2,0.9,0.2,1.3c1.4,7.6,8.3,21.5,25.4,25.1c0,4.6,0,7.5,0,7.5c-18.8,0-34-15.2-34-34
						C0,98,3.3,98,8.3,98"/>
					<path fill="#1A1262" d="M7.4,98c0.2,0.1,0.1,0.5,0.1,0.7c1.8,11,10.6,23.5,26.5,26.7c0,4.1,0,6.6,0,6.6c-18.8,0-34-15.2-34-34
						C0,98,2.9,98,7.4,98"/>
					<path fill="#19105F" d="M6.4,98c0.1,0.1,0.1,0.4,0.1,0.5c1.7,11.6,10.9,24.7,27.5,27.8c0,3.5,0,5.6,0,5.6
						c-18.8,0-34-15.2-34-34C0,98,2.4,98,6.4,98"/>
					<path fill="#170E5D" d="M5.3,98c0.3,0.3,0.2,1,0.2,1.4c1.7,11.4,11.4,25.1,28.5,28c0,2.9,0,4.6,0,4.6c-18.8,0-34-15.2-34-34
						C0,98,2,98,5.3,98"/>
					<path fill="#160C5A" d="M4.1,98c0.2,0.2,0.1,0.6,0.1,0.8C5.8,111.6,16.5,126,34,128.6c0,2.2,0,3.4,0,3.4c-18.8,0-34-15.2-34-34
						C0,98,1.5,98,4.1,98"/>
				</g>
			</g>
			<g enable-background="new    ">
				<defs>
					<path id="SVGID_5_" enable-background="new    " d="M204.3,98c12.1,0,22,0,22,0c0,18.8-15.2,34-34,34c0,0,0-9.9,0-22
						C198.9,110,204.3,104.6,204.3,98z"/>
				</defs>
				<clipPath id="SVGID_6_">
					<use xlink:href="#SVGID_5_"  overflow="visible"/>
				</clipPath>
				<g clip-path="url(#SVGID_6_)" enable-background="new    ">
					<path fill="#726CB1" d="M204.3,98c12.1,0,22,0,22,0c0,18.8-15.2,34-34,34c0,0,0-9.9,0-22C198.9,110,204.3,104.6,204.3,98"/>
					<path fill="#726CB1" d="M192.3,110c6.6,0,12-5.4,12-12c1.5,0,2.9,0,4.4,0c0,0,0,0,0,0c1,0.7,1.4,1,2.7,0c8.7,0,14.9,0,14.9,0
						c0,18.8-15.2,34-34,34C192.3,132,192.3,122.2,192.3,110"/>
					<path fill="#6E69B0" d="M192.3,110c6.6,0,12-5.4,12-12c1.3,0,2.5,0,3.7,0c0,0,0,0,0,0c0.8,1.2,1.8,2.5,4.1,0
						c8.3,0,14.2,0,14.2,0c0,18.8-15.2,34-34,34C192.3,132,192.3,122.2,192.3,110"/>
					<path fill="#6B66AE" d="M192.3,110c6.6,0,12-5.4,12-12c1.1,0,2.1,0,3.2,0c0,0,0,0,0,0c0.5,1.1,2,4.4,5.2,0c8,0,13.7,0,13.7,0
						c0,18.8-15.2,34-34,34C192.3,132,192.3,122.2,192.3,110"/>
					<path fill="#6762AC" d="M192.3,110c6.6,0,12-5.4,12-12c0.9,0,1.8,0,2.7,0c0,0,0,0,0,0c2,6.7,5.7,0.7,6.1,0c7.8,0,13.2,0,13.2,0
						c0,18.8-15.2,34-34,34C192.3,132,192.3,122.2,192.3,110"/>
					<path fill="#635EAA" d="M192.3,110c6.6,0,12-5.4,12-12c0.8,0,1.5,0,2.3,0c0,0,0,0,0,0c2.2,8.5,6.5,1,7,0.1c0,0,0-0.1,0.1-0.1
						c7.5,0,12.7,0,12.7,0c0,18.8-15.2,34-34,34C192.3,132,192.3,122.2,192.3,110"/>
					<path fill="#5E5AA7" d="M192.3,110c6.6,0,12-5.4,12-12c0.6,0,1.2,0,1.9,0c0,0,0,0,0,0c1.5,8.6,5.3,3.7,6.6,2.1
						c0.5-0.6,0.9-1.4,1.3-2.1c7.3,0,12.3,0,12.3,0c0,18.8-15.2,34-34,34C192.3,132,192.3,122.2,192.3,110"/>
					<path fill="#5956A5" d="M192.3,110c6.6,0,12-5.4,12-12c0.5,0,1,0,1.5,0c0,0,0,0,0,0c0.6,5.1,0.6,5.1,1.3,5.4
						c2.6,1.1,5.6-2.4,5.6-2.5c1-1.2,1.5-2.3,1.8-2.9c7,0,11.9,0,11.9,0c0,18.8-15.2,34-34,34C192.3,132,192.3,122.2,192.3,110"/>
					<path fill="#5451A2" d="M192.3,110c6.6,0,12-5.4,12-12c0.4,0,0.7,0,1.1,0c0,0,0,0,0,0c0.5,6,0.5,6,1.2,6.4
						c0.8,0.4,3.6-0.1,5.9-2.6c1.4-1.6,2.1-3.2,2.4-3.8c6.8,0,11.4,0,11.4,0c0,18.8-15.2,34-34,34C192.3,132,192.3,122.2,192.3,110"
						/>
					<path fill="#4D4A9F" d="M192.3,110c6.6,0,12-5.4,12-12c0.2,0,0.5,0,0.7,0c0,0,0,0,0,0c0.1,1.8-0.5,3.6-0.4,5.4
						c0.1,1.4,0.3,1.6,0.7,1.8c1.3,0.7,4.7-0.1,7.4-3c1.4-1.6,2-2.9,2.6-4.2c6.6,0,11,0,11,0c0,18.8-15.2,34-34,34
						C192.3,132,192.3,122.2,192.3,110"/>
					<path fill="#44439B" d="M192.3,110c6.6,0,12-5.4,12-12c0.1,0,0.2,0,0.3,0c0,0,0,0,0,0c0,1.2,0,2.6-0.9,5.5
						c-0.7,2.2-0.2,2.4,0.2,2.7c1,0.7,5.1,0.4,8.5-3c2-2,2.8-3.9,3.3-5.2c6.3,0,10.5,0,10.5,0c0,18.8-15.2,34-34,34
						C192.3,132,192.3,122.2,192.3,110"/>
					<path fill="#2E3192" d="M192.3,110.1c2.5-0.1,4.3-0.5,6.8-2c2.1-1.2,4.5-0.2,6.7-0.7c1.8-0.4,3-1,3.1-1
						c4.6-2.3,6.4-5.7,7.5-8.4c6,0,10,0,10,0c0,18.8-15.2,34-34,34C192.3,132,192.3,122.2,192.3,110.1"/>
					<path fill="#2D2F8F" d="M192.3,110.5c2.4,0,13.4-1.8,17.1-3.7c2.3-1.2,5.5-3.7,7.5-8.8c5.7,0,9.4,0,9.4,0c0,18.8-15.2,34-34,34
						C192.3,132,192.3,122.4,192.3,110.5"/>
					<path fill="#2C2E8C" d="M192.3,111c3.9,0.2,13.5-1.7,16.6-3.2c4.2-2.2,6.8-5.1,8.6-9.7c5.3,0,8.8,0,8.8,0c0,18.8-15.2,34-34,34
						C192.3,132,192.3,122.7,192.3,111"/>
					<path fill="#2C2C8A" d="M192.3,111.4c3.3,0.3,20.1,1,25.9-13.4c4.9,0,8.1,0,8.1,0c0,18.8-15.2,34-34,34
						C192.3,132,192.3,122.9,192.3,111.4"/>
					<path fill="#2B2B88" d="M192.3,111.9c2.1,0.2,20.5,1.8,26.7-13.9c4.5,0,7.3,0,7.3,0c0,18.8-15.2,34-34,34
						C192.3,132,192.3,123.2,192.3,111.9"/>
					<path fill="#2A2A86" d="M192.3,112.4c0.2,0,21.3,2.7,27.6-14.4c3.9,0,6.4,0,6.4,0c0,18.8-15.2,34-34,34
						C192.3,132,192.3,123.4,192.3,112.4"/>
					<path fill="#292984" d="M192.3,112.9c9.4,1.4,24.4-2.2,28.5-14.9c3.4,0,5.5,0,5.5,0c0,18.8-15.2,34-34,34
						C192.3,132,192.3,123.7,192.3,112.9"/>
					<path fill="#282882" d="M192.3,113.5c9,1.5,24.9-1.4,29.3-15.5c2.9,0,4.7,0,4.7,0c0,18.8-15.2,34-34,34
						C192.3,132,192.3,124,192.3,113.5"/>
					<path fill="#272780" d="M192.3,114.1c10.2,1.8,26.3-1.9,30-16.1c2.5,0,4,0,4,0c0,18.8-15.2,34-34,34
						C192.3,132,192.3,124.3,192.3,114.1"/>
					<path fill="#27257D" d="M192.3,114.7c10.5,2,27.5-1.9,30.6-16.7c2.1,0,3.4,0,3.4,0c0,18.8-15.2,34-34,34
						C192.3,132,192.3,124.6,192.3,114.7"/>
					<path fill="#26247B" d="M192.3,115.5c10.3,2,27.8-0.9,31.2-17.4c1.8,0,2.8,0,2.8,0c0,18.8-15.2,34-34,34
						C192.3,132,192.3,125,192.3,115.5"/>
					<path fill="#252379" d="M192.3,116.2c9.4,1.9,28,0.6,31.7-18.2c1.5,0,2.3,0,2.3,0c0,18.8-15.2,34-34,34
						C192.3,132,192.3,125.4,192.3,116.2"/>
					<path fill="#242177" d="M192.3,117.1c13.7,2.9,29.6-2.7,32.1-19.1c1.2,0,1.9,0,1.9,0c0,18.8-15.2,34-34,34
						C192.3,132,192.3,125.8,192.3,117.1"/>
					<path fill="#232075" d="M192.3,118c14.2,3.1,29.9-2.8,32.5-20c1,0,1.5,0,1.5,0c0,18.8-15.2,34-34,34
						C192.3,132,192.3,126.2,192.3,118"/>
					<path fill="#221F72" d="M192.3,118.9c14.5,3.1,30.4-3.1,32.8-20.9c0.8,0,1.2,0,1.2,0c0,18.8-15.2,34-34,34
						C192.3,132,192.3,126.6,192.3,118.9"/>
					<path fill="#211D70" d="M192.3,119.8c17.3,3.7,31.5-5.7,33.1-21.8c0.6,0,0.9,0,0.9,0c0,18.8-15.2,34-34,34
						C192.3,132,192.3,127.1,192.3,119.8"/>
					<path fill="#201B6D" d="M192.3,120.8c15.1,3.1,31.4-3.7,33.3-22.8c0.4,0,0.7,0,0.7,0c0,18.8-15.2,34-34,34
						C192.3,132,192.3,127.5,192.3,120.8"/>
					<path fill="#1F1A6B" d="M192.3,121.7c18,3.6,32.1-6.3,33.5-23.7c0.3,0,0.5,0,0.5,0c0,18.8-15.2,34-34,34
						C192.3,132,192.3,127.9,192.3,121.7"/>
					<path fill="#1E1869" d="M192.3,122.6c17.9,3.5,32.7-7.3,33.7-24.6c0.2,0,0.3,0,0.3,0c0,18.8-15.2,34-34,34
						C192.3,132,192.3,128.3,192.3,122.6"/>
					<path fill="#1C1666" d="M192.3,123.6c18.3,3.4,32.8-7.6,33.9-25.5c0.1,18.8-15.1,34-33.9,34C192.3,132,192.3,128.7,192.3,123.6
						"/>
					<path fill="#1B1464" d="M192.3,124.5L192.3,124.5c18.3,3.6,33.5-8.3,34-26.5c0,18.8-15.2,34-34,34
						C192.3,132,192.3,129.1,192.3,124.5"/>
					<path fill="#1A1262" d="M192.3,125.4c16.2,2.8,33.3-6.6,34-27.4c0,18.8-15.2,34-34,34C192.3,132,192.3,129.5,192.3,125.4"/>
					<path fill="#19105F" d="M192.3,126.4c17.1,2.8,31.3-7.3,33.7-24c-2.2,16.7-16.4,29.5-33.7,29.6
						C192.3,132,192.3,129.9,192.3,126.4"/>
					<path fill="#170E5D" d="M192.3,127.4c15.5,2.1,28.3-5.6,32.6-19.8c-4.2,14.1-17.2,24.3-32.6,24.4
						C192.3,132,192.3,130.3,192.3,127.4"/>
					<path fill="#160C5A" d="M192.3,128.6c12.8,1.7,24.4-4.1,30.3-15.2c-5.6,11-17.1,18.6-30.3,18.6
						C192.3,132,192.3,130.8,192.3,128.6"/>
				</g>
			</g>
			<g enable-background="new    ">
				<defs>
					<path id="SVGID_7_" enable-background="new    " d="M204.3,34c12.1,0,22,0,22,0l0,64c0,0-9.9,0-22,0
						C204.3,98,204.3,34,204.3,34z"/>
				</defs>
				<clipPath id="SVGID_8_">
					<use xlink:href="#SVGID_7_"  overflow="visible"/>
				</clipPath>
				<g clip-path="url(#SVGID_8_)" enable-background="new    ">
					<path fill="#44439B" d="M204.3,98V34c0.1,0,0.2,0,0.3,0v64C204.5,98,204.4,98,204.3,98"/>
					<path fill="#4D4A9F" d="M204.7,98V34c0.1,0,0.3,0,0.4,0v64C204.9,98,204.8,98,204.7,98"/>
					<path fill="#5451A2" d="M205,98V34c0.1,0,0.3,0,0.4,0v64C205.3,98,205.2,98,205,98"/>
					<path fill="#5956A5" d="M205.4,98V34c0.1,0,0.3,0,0.4,0v64C205.7,98,205.5,98,205.4,98"/>
					<path fill="#5E5AA7" d="M205.8,98V34c0.1,0,0.3,0,0.4,0v64C206,98,205.9,98,205.8,98"/>
					<path fill="#635EAA" d="M206.2,98V34c0.2,0,0.3,0,0.4,0v64C206.5,98,206.3,98,206.2,98"/>
					<path fill="#6762AC" d="M206.6,98V34c0.1,0,0.3,0,0.4,0v64C206.9,98,206.8,98,206.6,98"/>
					<path fill="#6B66AE" d="M207.1,98V34c0.1,0,0.3,0,0.4,0v64C207.4,98,207.2,98,207.1,98"/>
					<path fill="#6E69B0" d="M207.5,98V34c0.2,0,0.3,0,0.5,0v64C207.8,98,207.7,98,207.5,98"/>
					<path fill="#726CB1" d="M208,98V34c0.3,0,0.6,0,0.9,0v64C208.6,98,208.3,98,208,98"/>
					<path fill="#756FB3" d="M208.9,98V34c0.8,0,1.7,0,2.5,0v64C210.6,98,209.8,98,208.9,98"/>
					<path fill="#726CB1" d="M211.4,98V34c0.2,0,0.4,0,0.6,0v64C211.8,98,211.6,98,211.4,98"/>
					<path fill="#6E69B0" d="M212,98V34c0.2,0,0.4,0,0.6,0v64C212.4,98,212.2,98,212,98"/>
					<path fill="#6B66AE" d="M212.6,98V34c0.2,0,0.3,0,0.5,0v64C213,98,212.8,98,212.6,98"/>
					<path fill="#6762AC" d="M213.1,98V34c0.2,0,0.3,0,0.4,0v64C213.4,98,213.3,98,213.1,98"/>
					<path fill="#635EAA" d="M213.6,98V34c0.1,0,0.3,0,0.4,0v64C213.9,98,213.7,98,213.6,98"/>
					<path fill="#5E5AA7" d="M214,98V34c0.1,0,0.3,0,0.4,0v64C214.3,98,214.2,98,214,98"/>
					<path fill="#5956A5" d="M214.5,98V34c0.2,0,0.3,0,0.5,0v64C214.8,98,214.6,98,214.5,98"/>
					<path fill="#5451A2" d="M214.9,98V34c0.2,0,0.3,0,0.5,0v64C215.2,98,215.1,98,214.9,98"/>
					<path fill="#4D4A9F" d="M215.4,98V34c0.2,0,0.3,0,0.4,0v64C215.7,98,215.5,98,215.4,98"/>
					<path fill="#44439B" d="M215.8,98V34c0.2,0,0.4,0,0.5,0v64C216.2,98,216,98,215.8,98"/>
					<path fill="#2E3192" d="M216.4,98V34c0.2,0,0.4,0,0.6,0v64C216.7,98,216.6,98,216.4,98"/>
					<path fill="#2D2F8F" d="M216.9,98V34c0.2,0,0.4,0,0.6,0v64C217.3,98,217.1,98,216.9,98"/>
					<path fill="#2C2E8C" d="M217.5,98V34c0.2,0,0.5,0,0.7,0v64C218,98,217.8,98,217.5,98"/>
					<path fill="#2C2C8A" d="M218.3,98V34c0.3,0,0.5,0,0.8,0v64C218.8,98,218.6,98,218.3,98"/>
					<path fill="#2B2B88" d="M219.1,98V34c0.3,0,0.6,0,0.9,0v64C219.7,98,219.4,98,219.1,98"/>
					<path fill="#2A2A86" d="M220,98V34c0.3,0,0.6,0,0.9,0v64C220.6,98,220.3,98,220,98"/>
					<path fill="#292984" d="M220.9,98V34c0.3,0,0.5,0,0.8,0v64C221.4,98,221.1,98,220.9,98"/>
					<path fill="#282882" d="M221.6,98V34c0.2,0,0.5,0,0.7,0v64C222.1,98,221.9,98,221.6,98"/>
					<path fill="#272780" d="M222.4,98V34c0.2,0,0.4,0,0.6,0v64C222.8,98,222.6,98,222.4,98"/>
					<path fill="#27257D" d="M223,98V34c0.2,0,0.4,0,0.5,0v64C223.3,98,223.2,98,223,98"/>
					<path fill="#26247B" d="M223.5,98V34c0.2,0,0.3,0,0.5,0v64C223.8,98,223.7,98,223.5,98"/>
					<path fill="#252379" d="M224,98V34c0.1,0,0.3,0,0.4,0v64C224.3,98,224.1,98,224,98"/>
					<path fill="#242177" d="M224.4,98V34c0.1,0,0.3,0,0.4,0v64C224.7,98,224.5,98,224.4,98"/>
					<path fill="#232075" d="M224.8,98V34c0.1,0,0.2,0,0.3,0v64C225,98,224.9,98,224.8,98"/>
					<path fill="#221F72" d="M225.1,98V34c0.1,0,0.2,0,0.3,0v64C225.3,98,225.2,98,225.1,98"/>
					<path fill="#211D70" d="M225.4,98V34c0.1,0,0.2,0,0.3,0v64C225.6,98,225.5,98,225.4,98"/>
					<path fill="#201B6D" d="M225.6,98V34c0.1,0,0.2,0,0.2,0v64C225.8,98,225.7,98,225.6,98"/>
					<path fill="#1F1A6B" d="M225.9,98V34c0.1,0,0.1,0,0.2,0v64C226,98,225.9,98,225.9,98"/>
					<path fill="#1E1869" d="M226,98V34c0.1,0,0.1,0,0.1,0v64C226.1,98,226.1,98,226,98"/>
					<path fill="#1C1666" d="M226.2,98V34c0,0,0.1,0,0.1,0L226.2,98C226.2,98,226.2,98,226.2,98"/>
					<path fill="#1B1464" d="M226.3,98V34c0,0,0,0,0,0L226.3,98C226.3,98,226.3,98,226.3,98"/>
					<polyline fill="#1A1262" points="226.3,98 226.3,34 226.3,34 226.3,98 226.3,98 					"/>
				</g>
			</g>
			<g enable-background="new    ">
				<defs>
					<path id="SVGID_9_" enable-background="new    " d="M22,98C9.9,98,0,98,0,98l0-64c0,0,9.9,0,22,0C22,34,22,98,22,98z"/>
				</defs>
				<clipPath id="SVGID_10_">
					<use xlink:href="#SVGID_9_"  overflow="visible"/>
				</clipPath>
				<g clip-path="url(#SVGID_10_)" enable-background="new    ">
					<path fill="#44439B" d="M22,34v64c0,0,0,0,0,0L22,34C22,34,22,34,22,34"/>
					<path fill="#2E3192" d="M22,34v64c-0.1,0-0.3,0-0.4,0V34C21.7,34,21.8,34,22,34"/>
					<path fill="#2D2F8F" d="M21.6,34v64c-0.1,0-0.3,0-0.4,0V34C21.3,34,21.4,34,21.6,34"/>
					<path fill="#2C2E8C" d="M21.1,34v64c-0.1,0-0.3,0-0.4,0V34C20.9,34,21,34,21.1,34"/>
					<path fill="#2C2C8A" d="M20.7,34v64c-0.1,0-0.3,0-0.4,0V34C20.5,34,20.6,34,20.7,34"/>
					<path fill="#2B2B88" d="M20.3,34v64c-0.2,0-0.3,0-0.5,0V34C20,34,20.2,34,20.3,34"/>
					<path fill="#2A2A86" d="M19.9,34v64c-0.2,0-0.3,0-0.5,0V34C19.5,34,19.7,34,19.9,34"/>
					<path fill="#292984" d="M19.4,34v64c-0.2,0-0.3,0-0.5,0V34C19,34,19.2,34,19.4,34"/>
					<path fill="#282882" d="M18.9,34v64c-0.2,0-0.3,0-0.5,0V34C18.5,34,18.7,34,18.9,34"/>
					<path fill="#272780" d="M18.3,34v64c-0.2,0-0.4,0-0.7,0V34C17.9,34,18.1,34,18.3,34"/>
					<path fill="#27257D" d="M17.7,34v64c-0.2,0-0.4,0-0.6,0V34C17.3,34,17.5,34,17.7,34"/>
					<path fill="#26247B" d="M17,34v64c-0.2,0-0.5,0-0.7,0V34C16.6,34,16.8,34,17,34"/>
					<path fill="#252379" d="M16.3,34v64c-0.3,0-0.5,0-0.8,0V34C15.8,34,16.1,34,16.3,34"/>
					<path fill="#242177" d="M15.5,34v64c-0.3,0-0.6,0-0.8,0V34C15,34,15.3,34,15.5,34"/>
					<path fill="#232075" d="M14.7,34v64c-0.3,0-0.6,0-0.9,0V34C14.1,34,14.4,34,14.7,34"/>
					<path fill="#221F72" d="M13.8,34v64c-0.3,0-0.6,0-0.9,0V34C13.2,34,13.5,34,13.8,34"/>
					<path fill="#211D70" d="M12.9,34v64c-0.3,0-0.6,0-0.9,0V34C12.3,34,12.6,34,12.9,34"/>
					<path fill="#201B6D" d="M12,34v64c-0.3,0-0.6,0-0.9,0V34C11.4,34,11.7,34,12,34"/>
					<path fill="#1F1A6B" d="M11.1,34v64c-0.3,0-0.6,0-0.9,0V34C10.5,34,10.8,34,11.1,34"/>
					<path fill="#1E1869" d="M10.2,34v64c-0.3,0-0.6,0-0.9,0V34C9.6,34,9.9,34,10.2,34"/>
					<path fill="#1C1666" d="M9.3,34v64c-0.3,0-0.6,0-0.9,0V34C8.6,34,8.9,34,9.3,34"/>
					<path fill="#1B1464" d="M8.3,34v64c-0.3,0-0.6,0-1,0V34C7.7,34,8,34,8.3,34"/>
					<path fill="#1A1262" d="M7.4,34v64c-0.3,0-0.7,0-1,0V34C6.7,34,7,34,7.4,34"/>
					<path fill="#19105F" d="M6.4,34v64c-0.4,0-0.7,0-1.1,0V34C5.6,34,6,34,6.4,34"/>
					<path fill="#170E5D" d="M5.3,34v64c-0.4,0-0.9,0-1.3,0V34C4.4,34,4.9,34,5.3,34"/>
					<path fill="#160C5A" d="M4,34v64c-2.5,0-4,0-4,0V34C0,34,1.5,34,4,34"/>
				</g>
			</g>
			<g>
				<path fill="#292883" d="M192.3,22c6.6,0,12,5.4,12,12c0,21.3,0,42.7,0,64c0,6.6-5.4,12-12,12c-52.8,0-105.5,0-158.3,0
					c-6.6,0-12-5.4-12-12c0-21.3,0-42.7,0-64c0-6.6,5.4-12,12-12C86.8,22,139.5,22,192.3,22z"/>
			</g>
			<g enable-background="new    ">
				<defs>
					<path id="SVGID_11_" enable-background="new    " d="M22,34C9.9,34,0,34,0,34c0-18.8,15.2-34,34-34c0,0,0,9.9,0,22
						C27.4,22,22,27.4,22,34z"/>
				</defs>
				<clipPath id="SVGID_12_">
					<use xlink:href="#SVGID_11_"  overflow="visible"/>
				</clipPath>
				<g clip-path="url(#SVGID_12_)" enable-background="new    ">
					<path fill="#6762AC" d="M22,34C9.9,34,0,34,0,34c0-18.8,15.2-34,34-34c0,0,0,9.9,0,22C27.4,22,22,27.4,22,34"/>
					<path fill="#6762AC" d="M34,16.1c-0.3,0.9-0.4,1.2,0,1.8c0,1.3,0,2.7,0,4.2c-6.6,0-12,5.4-12,12C9.9,34,0,34,0,34
						c0-18.8,15.2-34,34-34C34,0,34,6.8,34,16.1"/>
					<path fill="#635EAA" d="M34,15.1c-2,2.1-0.7,3.2,0,3.8c0,1,0,2,0,3.1c-6.6,0-12,5.4-12,12C9.9,34,0,34,0,34
						c0-18.8,15.2-34,34-34C34,0,34,6.4,34,15.1"/>
					<path fill="#5E5AA7" d="M34,14.4c-4,3.3-1,4.7,0,5.2c0,0.8,0,1.6,0,2.4c-6.6,0-12,5.4-12,12C9.9,34,0,34,0,34
						c0-18.8,15.2-34,34-34C34,0,34,6,34,14.4"/>
					<path fill="#5956A5" d="M34,13.8c-1.1,0.8-6.3,4.6,0,6.4c0,0.6,0,1.2,0,1.9c-6.6,0-12,5.4-12,12C9.9,34,0,34,0,34
						c0-18.8,15.2-34,34-34C34,0,34,5.7,34,13.8"/>
					<path fill="#5451A2" d="M34,13.3c-3,1.8-6.1,6.1-2.1,7c0.5,0.1,0.8,0.2,2.1,0.4c0,0.4,0,0.9,0,1.4c-6.6,0-12,5.4-12,12
						C9.9,34,0,34,0,34c0-18.8,15.2-34,34-34C34,0,34,5.5,34,13.3"/>
					<path fill="#4D4A9F" d="M34,12.7c-4.4,2.3-6.4,7.2-4.1,8c0.1,0,0.1,0,4.1,0.5c0,0.3,0,0.6,0,0.9c-6.6,0-12,5.4-12,12
						C9.9,34,0,34,0,34c0-18.8,15.2-34,34-34C34,0,34,5.2,34,12.7"/>
					<path fill="#44439B" d="M34,12.2c-6.6,3.6-6.9,8.9-5.7,9.6c0,0,0.5,0.2,2.5,0c1.6-0.2,2.5-0.2,3.2-0.1c0,0.1,0,0.3,0,0.4
						c-6.6,0-12,5.4-12,12C9.9,34,0,34,0,34c0-18.8,15.2-34,34-34C34,0,34,5,34,12.2"/>
					<path fill="#2E3192" d="M34,11.7c-2.8,1.5-4.9,3.4-6.1,5.6c-0.3,0.6-0.7,1.3-0.9,1.9c-0.8,1.8-0.2,4-1.2,5.8
						c-1,1.7-2.4,3.1-3.1,5C22,31.8,22,33.2,22,34C9.8,34,0,34,0,34c0-18.8,15.2-34,34-34C34,0,34,4.8,34,11.7"/>
					<path fill="#2D2F8F" d="M34,11.1L34,11.1c-1.3,0.6-4.8,2.3-7.1,6.6c-0.1,0.1-5.4,10.7-5.3,16.4C9.6,34,0,34,0,34
						c0-18.8,15.2-34,34-34C34,0,34,4.5,34,11.1"/>
					<path fill="#2C2E8C" d="M34,10.5C21.9,16.2,21.2,33.9,21.2,34C9.4,34,0,34,0,34c0-18.8,15.2-34,34-34C34,0,34,4.2,34,10.5"/>
					<path fill="#2C2C8A" d="M34,9.8c-13.3,6.2-13.2,24-13.2,24.2C9.2,34,0,34,0,34c0-18.8,15.2-34,34-34C34,0,34,3.9,34,9.8"/>
					<path fill="#2B2B88" d="M34,9.1c-13.8,6.3-13.7,24.8-13.7,25C9,34,0,34,0,34c0-18.8,15.2-34,34-34C34,0,34,3.6,34,9.1"/>
					<path fill="#2A2A86" d="M34,8.2L34,8.2C19.1,15.2,19.9,33.9,19.9,34C8.7,34,0,34,0,34c0-18.8,15.2-34,34-34C34,0,34,3.2,34,8.2
						"/>
					<path fill="#292984" d="M34,7.3L34,7.3C20.1,13.5,19,30,19.4,34C8.5,34,0,34,0,34c0-18.8,15.2-34,34-34C34,0,34,2.8,34,7.3"/>
					<path fill="#282882" d="M34,6.3C21.5,11.4,18,26.9,18.9,34C8.2,34,0,34,0,34c0-18.8,15.2-34,34-34C34,0,34,2.4,34,6.3"/>
					<path fill="#272780" d="M34,5.4C22,9.7,17.1,25,18.4,34C7.9,34,0,34,0,34c0-18.8,15.2-34,34-34C34,0,34,2.1,34,5.4"/>
					<path fill="#27257D" d="M34,4.7C19.4,9.6,16.7,26.6,17.7,34C7.6,34,0,34,0,34c0-18.8,15.2-34,34-34C34,0,34,1.8,34,4.7"/>
					<path fill="#26247B" d="M34,4C20.1,7.9,15.7,24.3,17.1,34C7.3,34,0,34,0,34c0-18.8,15.2-34,34-34C34,0,34,1.5,34,4"/>
					<path fill="#252379" d="M34,3.4C19.3,6.8,14.8,23.4,16.3,34C6.9,34,0,34,0,34c0-18.8,15.2-34,34-34C34,0,34,1.3,34,3.4"/>
					<path fill="#242177" d="M34,2.8L34,2.8C17.4,6.5,13.9,23.9,15.6,34C6.6,34,0,34,0,34c0-18.8,15.2-34,34-34C34,0,34,1.1,34,2.8"
						/>
					<path fill="#232075" d="M34,2.3C16.6,6,12.9,23.3,14.7,34C6.1,34,0,34,0,34c0-18.8,15.2-34,34-34C34,0,34,0.9,34,2.3"/>
					<path fill="#221F72" d="M34,1.9C17.9,4.6,11.6,20.5,13.8,34C5.7,34,0,34,0,34c0-18.8,15.2-34,34-34C34,0,34,0.7,34,1.9"/>
					<path fill="#211D70" d="M34,1.5C15,4.6,11,22.7,12.9,34C5.3,34,0,34,0,34c0-18.8,15.2-34,34-34C34,0,34,0.6,34,1.5"/>
					<path fill="#201B6D" d="M34,1.2L34,1.2C18.7,3,9.3,17.1,12,34c-7.1,0-12,0-12,0c0-18.8,15.2-34,34-34C34,0,34,0.4,34,1.2"/>
					<path fill="#1F1A6B" d="M34,0.9C15.9,3,8.7,19.2,11.1,34C4.5,34,0,34,0,34c0-18.8,15.2-34,34-34C34,0,34,0.3,34,0.9"/>
					<path fill="#1E1869" d="M34,0.6C17.9,1.9,7.4,16.6,10.2,34C4.1,34,0,34,0,34c0-18.8,15.2-34,34-34C34,0,34,0.2,34,0.6"/>
					<path fill="#1C1666" d="M34,0.4L34,0.4C14.7,2,6.8,18.9,9.3,34C3.7,34,0,34,0,34c0-18.8,15.2-34,34-34C34,0,34,0.2,34,0.4"/>
					<path fill="#1B1464" d="M34,0.2C17,1,5.7,15.8,8.3,34C3.3,34,0,34,0,34c0-18.8,15.2-34,34-34C34,0,34,0.1,34,0.2"/>
					<path fill="#1A1262" d="M34,0.1C13.6,1.2,5.2,18,7.4,34C2.8,34,0,34,0,34C0,15.2,15.2,0.1,34,0.1C34,0,34,0.1,34,0.1"/>
					<path fill="#19105F" d="M34,0L34,0C15.8,0.6,3.9,15.2,6.4,34C2.4,34,0,34,0,34C0,15.2,15.2,0.1,34,0C34,0,34,0,34,0"/>
					<path fill="#170E5D" d="M28.8,0.4C15.5,2.6,3.1,14.8,5.3,34C2,34,0,34,0,34C0,16.6,13,2.3,29.9,0.3c0,0,0,0,0,0
						C29.6,0.3,29.1,0.4,28.8,0.4"/>
					<path fill="#160C5A" d="M22.3,2.1C12,5.9,2.3,17.2,4.1,34C1.5,34,0,34,0,34C0,18.8,10,5.9,23.8,1.6c0,0,0,0,0,0
						C23.4,1.8,22.8,2,22.3,2.1"/>
				</g>
			</g>
			<g enable-background="new    ">
				<defs>
					<path id="SVGID_13_" enable-background="new    " d="M34,22c0-12.1,0-22,0-22l158.3,0c0,0,0,9.9,0,22C192.3,22,34,22,34,22z"/>
				</defs>
				<clipPath id="SVGID_14_">
					<use xlink:href="#SVGID_13_"  overflow="visible"/>
				</clipPath>
				<g clip-path="url(#SVGID_14_)" enable-background="new    ">
					<path fill="#44439B" d="M192.3,22H34c0-0.1,0-0.3,0-0.4h158.3C192.3,21.8,192.3,21.9,192.3,22"/>
					<path fill="#4D4A9F" d="M192.3,21.6H34c0-0.2,0-0.3,0-0.5h158.3C192.3,21.3,192.3,21.5,192.3,21.6"/>
					<path fill="#5451A2" d="M192.3,21.1H34c0-0.2,0-0.3,0-0.5h158.3C192.3,20.8,192.3,21,192.3,21.1"/>
					<path fill="#5956A5" d="M192.3,20.7H34c0-0.2,0-0.3,0-0.5h158.3C192.3,20.3,192.3,20.5,192.3,20.7"/>
					<path fill="#5E5AA7" d="M192.3,20.2H34c0-0.2,0-0.4,0-0.7h158.3C192.3,19.7,192.3,20,192.3,20.2"/>
					<path fill="#635EAA" d="M192.3,19.5H34c0-0.2,0-0.4,0-0.7h158.3C192.3,19.1,192.3,19.3,192.3,19.5"/>
					<path fill="#6762AC" d="M192.3,18.9H34c0-0.5,0-0.9,0-1.4h158.3C192.3,17.9,192.3,18.4,192.3,18.9"/>
					<path fill="#6B66AE" d="M192.3,17.5H34c0-0.4,0-0.7,0-1.1h158.3C192.3,16.7,192.3,17.1,192.3,17.5"/>
					<path fill="#6762AC" d="M192.3,16.4H34c0-0.4,0-0.9,0-1.3h158.3C192.3,15.5,192.3,15.9,192.3,16.4"/>
					<path fill="#635EAA" d="M192.3,15.1H34c0-0.2,0-0.4,0-0.6h158.3C192.3,14.7,192.3,14.9,192.3,15.1"/>
					<path fill="#5E5AA7" d="M192.3,14.4H34c0-0.2,0-0.4,0-0.6h158.3C192.3,14,192.3,14.2,192.3,14.4"/>
					<path fill="#5956A5" d="M192.3,13.8H34c0-0.2,0-0.4,0-0.6h158.3C192.3,13.4,192.3,13.6,192.3,13.8"/>
					<path fill="#5451A2" d="M192.3,13.2H34c0-0.2,0-0.4,0-0.5h158.3C192.3,12.9,192.3,13.1,192.3,13.2"/>
					<path fill="#4D4A9F" d="M192.3,12.7H34c0-0.2,0-0.4,0-0.5h158.3C192.3,12.4,192.3,12.5,192.3,12.7"/>
					<path fill="#44439B" d="M192.3,12.2H34c0-0.2,0-0.4,0-0.6h158.3C192.3,11.8,192.3,12,192.3,12.2"/>
					<path fill="#2E3192" d="M192.3,11.6H34c0-0.2,0-0.4,0-0.6h158.3C192.3,11.2,192.3,11.4,192.3,11.6"/>
					<path fill="#2D2F8F" d="M192.3,11.1H34c0-0.2,0-0.4,0-0.6h158.3C192.3,10.7,192.3,10.9,192.3,11.1"/>
					<path fill="#2C2E8C" d="M192.3,10.5H34c0-0.2,0-0.5,0-0.7h158.3C192.3,10,192.3,10.2,192.3,10.5"/>
					<path fill="#2C2C8A" d="M192.3,9.8H34c0-0.2,0-0.5,0-0.7h158.3C192.3,9.3,192.3,9.5,192.3,9.8"/>
					<path fill="#2B2B88" d="M192.3,9.1H34c0-0.3,0-0.6,0-0.9h158.3C192.3,8.5,192.3,8.8,192.3,9.1"/>
					<path fill="#2A2A86" d="M192.3,8.2H34c0-0.3,0-0.6,0-0.9h158.3C192.3,7.5,192.3,7.9,192.3,8.2"/>
					<path fill="#292984" d="M192.3,7.2H34c0-0.3,0-0.6,0-0.9h158.3C192.3,6.6,192.3,6.9,192.3,7.2"/>
					<path fill="#282882" d="M192.3,6.3H34c0-0.3,0-0.6,0-0.9h158.3C192.3,5.7,192.3,6,192.3,6.3"/>
					<path fill="#272780" d="M192.3,5.4H34c0-0.3,0-0.5,0-0.8h158.3C192.3,4.9,192.3,5.2,192.3,5.4"/>
					<path fill="#27257D" d="M192.3,4.7H34c0-0.2,0-0.5,0-0.7h158.3C192.3,4.2,192.3,4.4,192.3,4.7"/>
					<path fill="#26247B" d="M192.3,4H34c0-0.2,0-0.4,0-0.6h158.3C192.3,3.5,192.3,3.8,192.3,4"/>
					<path fill="#252379" d="M192.3,3.4H34c0-0.2,0-0.4,0-0.5h158.3C192.3,3,192.3,3.2,192.3,3.4"/>
					<path fill="#242177" d="M192.3,2.8H34c0-0.2,0-0.3,0-0.5h158.3C192.3,2.5,192.3,2.7,192.3,2.8"/>
					<path fill="#232075" d="M192.3,2.3H34c0-0.1,0-0.3,0-0.4h158.3C192.3,2,192.3,2.2,192.3,2.3"/>
					<path fill="#221F72" d="M192.3,1.9H34c0-0.1,0-0.3,0-0.4h158.3C192.3,1.6,192.3,1.8,192.3,1.9"/>
					<path fill="#211D70" d="M192.3,1.5H34c0-0.1,0-0.2,0-0.3h158.3C192.3,1.3,192.3,1.4,192.3,1.5"/>
					<path fill="#201B6D" d="M192.3,1.2H34c0-0.1,0-0.2,0-0.3h158.3C192.3,1,192.3,1.1,192.3,1.2"/>
					<path fill="#1F1A6B" d="M192.3,0.9H34c0-0.1,0-0.2,0-0.3h158.3C192.3,0.7,192.3,0.8,192.3,0.9"/>
					<path fill="#1E1869" d="M192.3,0.6H34c0-0.1,0-0.2,0-0.2h158.3C192.3,0.5,192.3,0.5,192.3,0.6"/>
					<path fill="#1C1666" d="M192.3,0.4H34c0-0.1,0-0.1,0-0.2h158.3C192.3,0.3,192.3,0.3,192.3,0.4"/>
					<path fill="#1B1464" d="M192.3,0.2H34c0-0.1,0-0.1,0-0.1h158.3C192.3,0.1,192.3,0.2,192.3,0.2"/>
					<path fill="#1A1262" d="M192.3,0.1H34c0,0,0-0.1,0-0.1L192.3,0.1C192.3,0,192.3,0.1,192.3,0.1"/>
					<polyline fill="#19105F" points="192.3,0 34,0 34,0 192.3,0 192.3,0 					"/>
				</g>
			</g>
			<g enable-background="new    ">
				<defs>
					<path id="SVGID_15_" enable-background="new    " d="M192.3,22c0-12.1,0-22,0-22c18.8,0,34,15.2,34,34c0,0-9.9,0-22,0
						C204.3,27.4,198.9,22,192.3,22z"/>
				</defs>
				<clipPath id="SVGID_16_">
					<use xlink:href="#SVGID_15_"  overflow="visible"/>
				</clipPath>
				<g clip-path="url(#SVGID_16_)" enable-background="new    ">
					<path fill="#726CB1" d="M192.3,22c0-12.1,0-22,0-22c18.8,0,34,15.2,34,34c0,0-9.9,0-22,0C204.3,27.4,198.9,22,192.3,22"/>
					<path fill="#726CB1" d="M211.4,34L211.4,34c6.5-7.7-1.8-21.3-12.4-20.1c-2.2,0.2-6.5,2.1-3,4.9c7,5.4,7,5.4,7.5,6
						c2.3,2.8,3.4,6.2,5.1,9.2c-1.4,0-2.9,0-4.3,0c0-6.6-5.4-12-12-12c0-12.1,0-22,0-22c18.8,0,34,15.2,34,34
						C226.3,34,220.1,34,211.4,34"/>
					<path fill="#6E69B0" d="M212.1,34c6.3-10.2-4.7-22.7-14.6-20.2c-1.3,0.3-7.3,2.1-0.8,5.9c7.3,4.3,8.7,7.9,11.2,14.3
						c-1.2,0-2.4,0-3.7,0c0-6.6-5.4-12-12-12c0-12.1,0-22,0-22c18.8,0,34,15.2,34,34C226.3,34,220.4,34,212.1,34"/>
					<path fill="#6B66AE" d="M212.7,34c5.7-9.4-4.6-23.2-15.3-20.6c-2.1,0.5-6.9,2.9-2.7,5.5c8.8,5.6,10,6.3,12.8,15.1
						c-1,0-2.1,0-3.1,0c0-6.6-5.4-12-12-12c0-12.1,0-22,0-22c18.8,0,34,15.2,34,34C226.3,34,220.7,34,212.7,34"/>
					<path fill="#6762AC" d="M213.2,34L213.2,34c5.7-11.3-6.3-23.7-16.6-20.8c-1.3,0.4-3.1,1.1-4.3,2.8c0-9.2,0-16,0-16
						c18.8,0,34,15.2,34,34C226.3,34,220.9,34,213.2,34"/>
					<path fill="#635EAA" d="M213.6,34c5.7-13.3-8.7-24.5-18.1-20.9c-0.7,0.3-2,0.8-3.2,1.9c0-8.7,0-15,0-15c18.8,0,34,15.2,34,34
						C226.3,34,221.1,34,213.6,34"/>
					<path fill="#5E5AA7" d="M214,34c5.6-12.8-8.3-25.3-19.2-21.1c-1.2,0.4-2,1-2.5,1.4c0-8.4,0-14.3,0-14.3c18.8,0,34,15.2,34,34
						C226.3,34,221.3,34,214,34"/>
					<path fill="#5956A5" d="M214.5,34c5.5-14-9.1-26.2-20.5-21.1c-0.8,0.3-1.3,0.7-1.6,0.9c0-8.1,0-13.7,0-13.7
						c18.8,0,34,15.2,34,34C226.3,34,221.5,34,214.5,34"/>
					<path fill="#5451A2" d="M214.9,34c-0.2-0.3,0.3-0.8,0.4-1.2c1.4-3.8,1.2-11.5-4.8-17c-3.9-3.6-11.1-6.5-18.2-2.6
						c0-7.8,0-13.2,0-13.2c18.8,0,34,15.2,34,34C226.3,34,221.7,34,214.9,34"/>
					<path fill="#4D4A9F" d="M215.4,34c-0.2-0.3,0.3-0.8,0.4-1.2c1.3-3.9,1.1-11.6-5-17.3c-1.4-1.3-8.8-7.5-18.5-2.8
						c0-7.5,0-12.7,0-12.7c18.8,0,34,15.2,34,34C226.3,34,221.9,34,215.4,34"/>
					<path fill="#44439B" d="M215.8,34c5.1-14.7-9.4-28.2-23.5-21.9c0-7.2,0-12.1,0-12.1c18.8,0,34,15.2,34,34
						C226.3,34,222.1,34,215.8,34"/>
					<path fill="#2E3192" d="M216.3,34c-0.1-0.2,0.2-0.5,0.2-0.7c1.8-5.3,0.9-13-5-18.5c-4.3-4-11.9-6.5-19.3-3.1
						c0-6.9,0-11.6,0-11.6c18.8,0,34,15.2,34,34C226.3,34,222.3,34,216.3,34"/>
					<path fill="#2D2F8F" d="M216.9,34c-0.1-0.2,0.2-0.6,0.3-0.8c0.4-1.1,3.3-11.1-5.1-18.9c-4.3-4-12.1-6.6-19.8-3.2
						c0-6.6,0-11,0-11c18.8,0,34,15.2,34,34C226.3,34,222.6,34,216.9,34"/>
					<path fill="#2C2E8C" d="M217.5,34c-0.1-0.2,0.1-0.4,0.2-0.6c1.8-5.5,1.4-13.6-5.1-19.7c-4-3.8-11.8-6.9-20.3-3.3
						c0-6.3,0-10.4,0-10.4c18.8,0,34,15.2,34,34C226.3,34,222.9,34,217.5,34"/>
					<path fill="#2C2C8A" d="M218.3,34c-0.3-0.3,0.3-1,0.4-1.4c1.3-4.1,1.7-12.7-5.5-19.5c-2.1-2-9.8-8-20.9-3.4c0-5.9,0-9.8,0-9.8
						c18.8,0,34,15.2,34,34C226.3,34,223.2,34,218.3,34"/>
					<path fill="#2B2B88" d="M219.1,34c-0.1-0.2,0.2-0.5,0.3-0.8c2.4-7.1,0.1-15.1-5.7-20.6c-3.4-3.2-10.8-8-21.3-3.7c0-5.5,0-9,0-9
						c18.8,0,34,15.2,34,34C226.3,34,223.5,34,219.1,34"/>
					<path fill="#2A2A86" d="M220,34c-0.2-0.3,0.2-0.8,0.3-1.1c1.8-5.7,0.5-14.3-6.2-20.7c-3.6-3.4-11.3-8.5-21.8-4.1
						c0-5,0-8.1,0-8.1c18.8,0,34,15.2,34,34C226.3,34,223.9,34,220,34"/>
					<path fill="#292984" d="M220.9,34c-0.3-0.3,0.3-1,0.4-1.4c1.5-5.5,0-14.4-6.8-20.7c-3-2.8-11.3-9-22.1-4.7c0-4.4,0-7.2,0-7.2
						c18.8,0,34,15.2,34,34C226.3,34,224.3,34,220.9,34"/>
					<path fill="#282882" d="M221.7,34c4.1-15.7-12-34-29.4-27.8c0-3.9,0-6.2,0-6.2c18.8,0,34,15.2,34,34
						C226.3,34,224.6,34,221.7,34"/>
					<path fill="#272780" d="M222.4,34c3.6-17.7-13.2-33.7-30.1-28.6c0-3.3,0-5.4,0-5.4c18.8,0,34,15.2,34,34
						C226.3,34,224.9,34,222.4,34"/>
					<path fill="#27257D" d="M223,34c-0.3-0.4,0.2-1.1,0.3-1.6c0.9-5.9-1.2-14.9-7.9-21.4c-4.6-4.4-12.3-9.1-23-6.4
						c0-2.9,0-4.6,0-4.6c18.8,0,34,15.2,34,34C226.3,34,225.1,34,223,34"/>
					<path fill="#26247B" d="M223.5,34c2.7-18.1-13.9-34.2-31.2-30.1c0-2.5,0-3.9,0-3.9c18.8,0,34,15.2,34,34
						C226.3,34,225.3,34,223.5,34"/>
					<path fill="#252379" d="M224,34c-0.3-0.4,0.1-1.2,0.2-1.6c0.6-5.6-1.2-14.7-8.5-21.7c-4.6-4.5-12.4-9.3-23.4-7.3
						c0-2.1,0-3.3,0-3.3c18.8,0,34,15.2,34,34C226.3,34,225.5,34,224,34"/>
					<path fill="#242177" d="M224.4,34c-0.3-0.3,0.1-1,0.1-1.4c0.6-5.8-1.4-15-8.7-22.1c-3.1-3-11.6-9.8-23.5-7.7c0-1.8,0-2.8,0-2.8
						c18.8,0,34,15.2,34,34C226.3,34,225.6,34,224.4,34"/>
					<path fill="#756FB3" d="M209.5,33.8c-0.2-0.1-0.8-0.4-2-2.9c-1.5-3.2-2.6-5-4.2-6.8c-1.7-1.9-3.6-3.3-5.6-4.7
						c-1-0.7-1.7-1.4-1.7-1.4c-0.1-0.1-0.2-0.3-0.3-0.4c-1.3-2.3,2.6-3.2,2.7-3.2c10-2.3,18.4,10.9,13.8,18
						C211.7,33,210.6,34.4,209.5,33.8"/>
					<path fill="#232075" d="M224.8,34c-0.1-0.1,0-0.4,0.1-0.6c0.8-8.1-2.6-16.9-8.9-23c-4.6-4.5-12.4-9.5-23.7-8c0-1.5,0-2.3,0-2.3
						c18.8,0,34,15.2,34,34C226.3,34,225.8,34,224.8,34"/>
					<path fill="#7872B5" d="M209.4,32.9c-0.3-0.2-0.6-0.5-0.8-0.8c0,0-0.7-1.1-1.2-2c-1-1.9-2.1-4-4.1-6.2
						c-1.7-1.9-3.6-3.4-4.4-3.9c-2-1.5-2.2-1.7-2.7-2.7c-0.4-0.7,0.1-2,2-2.5c9.3-2.6,17.8,10,13.8,16.7
						C211.6,32.4,210.6,33.6,209.4,32.9"/>
					<path fill="#221F72" d="M225.1,34c-0.3-0.4,0.1-1.2,0.1-1.7c0.3-5.7-1.8-15-9.1-22.1c-3.8-3.7-12-9.8-23.8-8.4
						c0-1.2,0-1.9,0-1.9c18.8,0,34,15.2,34,34C226.3,34,225.9,34,225.1,34"/>
					<path fill="#7B75B7" d="M210,32.2c-0.4-0.1-0.9-0.4-1.1-0.7c-0.1-0.1-0.3-0.3-0.4-0.4c-1.7-2.1-2.7-4.6-4.4-6.7
						c-1.5-1.7-3.1-3.1-3.7-3.6c-2.4-2-2.6-2.2-3-2.8c-0.6-0.9-0.3-1.9,0.7-2.4c7.1-3.4,17.1,6.7,14.2,14.4
						C211.3,32.7,210,32.2,210,32.2"/>
					<path fill="#211D70" d="M225.4,34c-0.4-0.4,0.1-1.2,0.1-1.7c0.3-5.8-2-15-9.3-22.2c-6.6-6.5-15.3-9.6-23.9-8.6c0-1,0-1.5,0-1.5
						c18.8,0,34,15.2,34,34C226.3,34,226,34,225.4,34"/>
					<path fill="#7E78B8" d="M210,31.4c-0.1,0-0.5-0.1-1.2-0.8c-2.1-2.4-3.4-5.3-5.5-7.6c-1.7-1.8-3.8-3.2-5.2-5.2
						c0,0-0.8-1.2,0.5-2c4.6-3,15.4,4.1,13.6,13C212,29.8,211.3,31.6,210,31.4"/>
					<path fill="#817BBA" d="M209.8,30.6c0,0-0.5-0.2-1.1-0.8c-1.6-1.8-2.7-4-4.3-5.8c-1.7-2-3.9-3.6-5.5-5.7c0-0.1-0.9-1.3,0.3-2.1
						c4.1-2.5,13.8,4,12.6,11.8C211.9,28.4,211.4,30.9,209.8,30.6"/>
					<path fill="#201B6D" d="M225.6,34L225.6,34l-0.4-6.8c-0.5-3-1.4-5.4-1.8-6.4c-0.7-1.8-2.8-6.5-7.2-10.8
						c-6.7-6.6-14.7-9.6-24-8.9c0-0.7,0-1.1,0-1.1c18.8,0,34,15.2,34,34C226.3,34,226.1,34,225.6,34"/>
					<path fill="#847EBB" d="M209.6,29.7c-0.3-0.1-0.7-0.4-0.9-0.6c-1.5-1.7-2.6-3.6-4-5.2c-1.5-1.8-3.4-3.2-4.8-5.1
						c-0.4-0.6-0.9-1.6,0.2-2.2c1.5-0.9,5.5-0.2,8.4,2.9c3.3,3.4,3.5,7.4,2.9,9C211,29.5,210.4,29.9,209.6,29.7"/>
					<path fill="#1F1A6B" d="M225.9,34c-0.4-0.4,0-1.2,0-1.7c0.1-5.8-2.3-15.1-9.6-22.3c-3.8-3.8-12.1-10-24-9.2c0-0.5,0-0.8,0-0.8
						c18.8,0,34,15.2,34,34C226.3,34,226.2,34,225.9,34"/>
					<path fill="#8780BD" d="M209.4,28.8c-0.1,0-1-0.8-1-0.9c-1.2-1.4-2.2-2.9-3.4-4.3c-1.3-1.5-2.8-2.8-4-4.4
						c-1.1-1.6-0.7-2.1-0.1-2.4c3.8-2,11.9,5.2,10.2,10.7C211,28,210.6,29.2,209.4,28.8"/>
					<path fill="#6762AC" d="M204.3,34c0-6.6-5.4-12-12-12c0-1.4,0-2.8,0-4.1c0.1,0.1,0.2,0.3,0.3,0.4c2,1.3,4.3,2.1,6.3,3.4
						c1.3,0.9,2.5,1.8,3.6,3c2.8,3,3.9,6.7,4.5,9.3C206.1,34,205.2,34,204.3,34"/>
					<path fill="#8983BE" d="M209.3,27.8c-0.5-0.1-1.3-1-1.5-1.2l-5.6-6.6c-0.9-1.1-1.2-1.8-1-2.3c0.6-1.6,6.9-0.3,9.1,5.4
						c1,2.6,0.6,4.6-0.4,4.8C209.7,28,209.4,27.9,209.3,27.8"/>
					<path fill="#635EAA" d="M204.3,34c0-6.6-5.4-12-12-12c0-1,0-2.1,0-3.1c0.1,0,0.1,0.1,0.2,0.1c6.6,2.8,12.2,5.1,14.1,15
						C205.8,34,205.1,34,204.3,34"/>
					<path fill="#1E1869" d="M226,34c0.2-19.1-15-34.1-33.7-33.4c0-0.4,0-0.6,0-0.6c18.8,0,34,15.2,34,34C226.3,34,226.2,34,226,34"
						/>
					<path fill="#5E5AA7" d="M204.3,34c0-6.6-5.4-12-12-12c0-0.8,0-1.6,0-2.4c0.2,0.1,0.4,0.1,0.5,0.2c7.8,2.1,12.1,6.8,13.3,14.2
						C205.6,34,204.9,34,204.3,34"/>
					<path fill="#8C86C0" d="M209.2,26.9c-0.8-0.3-1.1-0.4-5.4-5.5c-1.2-1.4-1.9-2.3-1.7-3c0.5-1.6,5.2-0.2,7.4,4.1
						c1,1.9,1.1,4.3-0.1,4.5C209.4,27,209.3,26.9,209.2,26.9"/>
					<path fill="#5956A5" d="M204.3,34c0-6.6-5.4-12-12-12c0-0.6,0-1.2,0-1.9c0.2,0,0.5,0.1,0.7,0.2c2.8,0.8,11.4,3,12.8,13.7
						C205.3,34,204.8,34,204.3,34"/>
					<path fill="#5451A2" d="M204.3,34c0-6.6-5.4-12-12-12c0-0.5,0-0.9,0-1.4c0.2,0,0.5,0.1,0.7,0.1c9.8,2,12,9.2,12.4,13.2
						C205,34,204.7,34,204.3,34"/>
					<path fill="#8E88C1" d="M208.2,25.4c-1-0.6-3.7-4-4-4.4c-0.2-0.2-1.1-1.5-1-2c0-0.2,0.3-0.4,0.5-0.5c0.6-0.3,2.6,0.3,4.5,2.5
						c1,1.2,1.9,3.6,1.4,4.4c-0.1,0.2-0.4,0.4-0.6,0.4C208.7,25.8,208.4,25.6,208.2,25.4"/>
					<path fill="#4D4A9F" d="M204.3,34c0-6.6-5.4-12-12-12c0-0.3,0-0.6,0-0.9c0.2,0,0.5,0,0.7,0.1c7,1.1,11.5,5.9,12.1,12.8
						C204.8,34,204.5,34,204.3,34"/>
					<path fill="#1C1666" d="M209.9,5c-4.2-2.4-9.6-4.9-17.6-4.6c0-0.2,0-0.4,0-0.4c6.6,0,12.7,1.9,17.9,5.1
						C210.1,5.1,210,5,209.9,5"/>
					<path fill="#918BC3" d="M208.1,24.3c-0.6-0.1-3.6-3.6-3.5-4.2c0-0.2,0.2-0.5,0.4-0.6c0.4-0.1,1,0.3,1.4,0.5
						c0.7,0.5,0.7,0.5,1.4,1.3c1.1,1.3,1,2.6,1,2.6C208.6,24.2,208.3,24.3,208.1,24.3"/>
					<path fill="#1B1464" d="M202.4,1.6c-4.2-1.2-6.3-1.4-10.1-1.4c0-0.1,0-0.2,0-0.2c4.1,0,8,0.7,11.6,2.1
						C203.5,1.9,202.9,1.7,202.4,1.6"/>
					<path fill="#44439B" d="M204.3,34c0-6.6-5.4-12-12-12c0-0.1,0-0.3,0-0.4c0.2,0,0.4,0,0.6,0c6.8,0.8,11.3,5.6,11.7,12.4
						C204.5,34,204.4,34,204.3,34"/>
					<path fill="#1C1666" d="M226.2,34c-0.2-0.2,0-0.5,0-0.7c0.1-5.7-1.7-10.4-2.4-12.1c1.6,4,2.5,8.3,2.5,12.9
						C226.3,34,226.3,34,226.2,34"/>
					<path fill="#1A1262" d="M197.5,0.4c-1.7-0.2-3-0.4-5.2-0.3c0,0,0-0.1,0-0.1c2.2,0,4.3,0.2,6.3,0.6
						C198.3,0.6,197.8,0.5,197.5,0.4"/>
					<path fill="#1B1464" d="M226.3,34c-0.4-0.4,0-1.2,0-1.8c0-0.5-0.1-1.9-0.5-4.5C226.1,29.8,226.3,31.9,226.3,34
						C226.3,34,226.3,34,226.3,34"/>
					<path fill="#19105F" d="M192.3,0c0.4,0,0.8,0,1.2,0C193.1,0.1,192.6,0.3,192.3,0"/>
					<path fill="#1A1262" d="M226.3,34L226.3,34l0-0.6C226.3,33.6,226.3,33.8,226.3,34C226.3,34,226.3,34,226.3,34"/>
				</g>
			</g>
		</g>
	</g>
</g>
<rect x="28.5" y="35.7" fill="none" width="161.1" height="73.4"/>
<text transform="matrix(1 0 0 1 54.0262 61.5666)"><tspan x="0" y="0" fill="#FFFFFF" font-family="'Helvetica-Bold'" font-size="36">Hillary</tspan><tspan x="17" y="43.2" fill="#FFFFFF" font-family="'Helvetica-Bold'" font-size="36">Said </tspan></text>
</svg>
