<?xml version="1.0" encoding="utf-8"?>
<!-- Generator: Adobe Illustrator 19.2.1, SVG Export Plug-In . SVG Version: 6.00 Build 0)  -->
<svg version="1.1" id="Layer_1" xmlns="http://www.w3.org/2000/svg" xmlns:xlink="http://www.w3.org/1999/xlink" x="0px" y="0px"
	 viewBox="0 0 609.1 313" style="enable-background:new 0 0 609.1 313;" xml:space="preserve">
<style type="text/css">
	.st0{fill:#FFF200;}
	.st1{clip-path:url(#SVGID_2_);fill:#FFF200;}
	.st2{clip-path:url(#SVGID_2_);}
	.st3{fill:none;stroke:#000000;stroke-miterlimit:10;}
	.st4{fill:#FBFDFF;}
	.st5{font-family:'CarnivaleeFreakshow';}
	.st6{font-size:107.398px;}
	.st7{font-size:51.6336px;}
</style>
<g>
	<rect x="75.6" y="72.9" class="st0" width="457.9" height="174.2"/>
	<g>
		<defs>
			<rect id="SVGID_1_" x="75.6" y="39.3" width="457.9" height="234.4"/>
		</defs>
		<clipPath id="SVGID_2_">
			<use xlink:href="#SVGID_1_"  style="overflow:visible;"/>
		</clipPath>
		<path class="st1" d="M505.6,56.1v18.7H114.1V55c47.5,5.5,95.5,0.1,141.9-15.7c32.2,8.7,71.7,13,102.9,1.1
			C406.9,56.3,456.5,61.6,505.6,56.1"/>
		<path class="st1" d="M505.6,259.6v-15.7H114.1v16.6c47.5-4.6,95.5-0.1,141.9,13.2c32.2-7.3,71.7-10.9,102.9-0.9
			C406.8,259.4,456.5,255,505.6,259.6"/>
		<path class="st2" d="M501.4,257.4v-15.1H118.3v16c46.4-4.4,93.4-0.1,138.8,12.7c31.6-7,70.1-10.5,100.7-0.9
			C404.8,257.3,453.4,253,501.4,257.4"/>
		<path class="st2" d="M501.4,59.7V78H118.3V58.6c46.4,5.3,93.4,0.1,138.8-15.4c31.6,8.5,70.1,12.7,100.7,1.1
			C404.8,59.8,453.4,65,501.4,59.7"/>
	</g>
	<rect x="79.7" y="76.5" width="449.8" height="167.4"/>
	<rect x="79.7" y="76.5" class="st3" width="449.8" height="167.4"/>
	<text transform="matrix(1 0 0 1 113.5375 209.1157)" class="st4 st5 st6">freakshow</text>
	<text transform="matrix(1 0 0 1 149.3534 130.9272)" class="st4 st5 st7">welcome to the</text>
</g>
</svg>
