<?xml version="1.0" encoding="utf-8"?>
<!-- Generator: Adobe Illustrator 19.2.1, SVG Export Plug-In . SVG Version: 6.00 Build 0)  -->
<svg version="1.1" id="Layer_1" xmlns="http://www.w3.org/2000/svg" xmlns:xlink="http://www.w3.org/1999/xlink" x="0px" y="0px"
	 viewBox="0 0 225.5 132.6" style="enable-background:new 0 0 225.5 132.6;" xml:space="preserve">
<style type="text/css">
	.st0{fill:none;}
	.st1{fill:#FFFFFF;stroke:#F90808;stroke-width:2;stroke-miterlimit:10;}
	.st2{fill:#FF0000;}
	.st3{font-family:'Helvetica-Bold';}
	.st4{font-size:36px;}
	.st5{fill:none;stroke:#FF0000;stroke-width:0.75;stroke-miterlimit:10;}
	.st6{fill:#FC0000;}
	.st7{fill:none;stroke:#F90808;stroke-width:0.75;stroke-miterlimit:10;}
	.st8{fill:#FFFFFF;}
</style>
<rect x="28.5" y="35.7" class="st0" width="161.1" height="73.4"/>
<path class="st1" d="M183.2,120.9H34.9c-6.6,0-12-5.4-12-12V30.3c0-6.6,5.4-12,12-12h148.2c6.6,0,12,5.4,12,12v78.6
	C195.2,115.5,189.8,120.9,183.2,120.9z"/>
<text transform="matrix(1.0136 0 0 1 57.8594 63.0962)" class="st2 st3 st4">trump</text>
<text transform="matrix(1.0136 0 0 1 57.8594 63.0962)" class="st5 st3 st4">trump</text>
<text transform="matrix(1 0 0 1 73.2732 99.0627)" class="st6 st3 st4">said</text>
<text transform="matrix(1 0 0 1 73.2732 99.0627)" class="st7 st3 st4">said</text>
<text transform="matrix(1 0 0 1 145.2732 99.0627)" class="st8 st3 st4"> </text>
<text transform="matrix(1 0 0 1 145.2732 99.0627)" class="st7 st3 st4"> </text>
<text transform="matrix(1 0 0 1 155.2732 99.0627)" class="st8 st3 st4"> </text>
</svg>
